<svg xmlns="http://www.w3.org/2000/svg" xmlns:xlink="http://www.w3.org/1999/xlink" width="8000" zoomAndPan="magnify" viewBox="0 0 6000 2343.749891" height="3125" preserveAspectRatio="xMidYMid meet" version="1.0"><defs><clipPath id="38275ddb80"><path d="M 0.320312 0 L 5999.679688 0 L 5999.679688 2343.5 L 0.320312 2343.5 Z M 0.320312 0 " clip-rule="nonzero"/></clipPath><clipPath id="e90366828f"><path d="M 397 1075 L 1954 1075 L 1954 1687 L 397 1687 Z M 397 1075 " clip-rule="nonzero"/></clipPath><clipPath id="6ffbe8d1f0"><path d="M 532.644531 1130.398438 C 488.523438 1130.398438 452.664062 1166.320312 452.664062 1210.378906 L 452.664062 1551.984375 C 452.664062 1596.105469 488.523438 1631.960938 532.644531 1631.960938 L 1819.085938 1631.960938 C 1863.207031 1631.960938 1899.0625 1596.105469 1899.0625 1551.984375 L 1899.0625 1210.378906 C 1899.0625 1166.257812 1863.144531 1130.398438 1819.085938 1130.398438 Z M 1819.085938 1686.835938 L 532.644531 1686.835938 C 458.320312 1686.835938 397.855469 1626.371094 397.855469 1552.046875 L 397.855469 1210.378906 C 397.855469 1136.054688 458.320312 1075.589844 532.644531 1075.589844 L 1819.085938 1075.589844 C 1893.410156 1075.589844 1953.875 1136.054688 1953.875 1210.378906 L 1953.875 1551.984375 C 1953.875 1626.308594 1893.410156 1686.773438 1819.085938 1686.773438 " clip-rule="nonzero"/></clipPath><clipPath id="70c650eeb3"><path d="M 1270 351.253906 L 1889 351.253906 L 1889 970 L 1270 970 Z M 1270 351.253906 " clip-rule="nonzero"/></clipPath><clipPath id="9884c24aa3"><path d="M 1579.707031 406.175781 C 1439.570312 406.175781 1325.539062 520.207031 1325.539062 660.34375 C 1325.539062 800.476562 1439.570312 914.511719 1579.707031 914.511719 C 1719.839844 914.511719 1833.875 800.476562 1833.875 660.34375 C 1833.875 520.207031 1719.839844 406.175781 1579.707031 406.175781 M 1579.707031 969.261719 C 1409.371094 969.261719 1270.726562 830.679688 1270.726562 660.28125 C 1270.726562 489.882812 1409.371094 351.363281 1579.707031 351.363281 C 1750.042969 351.363281 1888.683594 489.945312 1888.683594 660.34375 C 1888.683594 830.742188 1750.105469 969.324219 1579.707031 969.324219 " clip-rule="nonzero"/></clipPath><clipPath id="69bb19dd08"><path d="M 438 351.253906 L 1057 351.253906 L 1057 970 L 438 970 Z M 438 351.253906 " clip-rule="nonzero"/></clipPath><clipPath id="2c17c75680"><path d="M 747.226562 406.175781 C 607.09375 406.175781 493.058594 520.207031 493.058594 660.34375 C 493.058594 800.476562 607.09375 914.511719 747.226562 914.511719 C 887.363281 914.511719 1001.394531 800.476562 1001.394531 660.34375 C 1001.394531 520.207031 887.363281 406.175781 747.226562 406.175781 M 747.226562 969.261719 C 576.890625 969.261719 438.246094 830.679688 438.246094 660.28125 C 438.246094 489.882812 576.828125 351.363281 747.226562 351.363281 C 917.625 351.363281 1056.144531 489.945312 1056.144531 660.34375 C 1056.144531 830.742188 917.5625 969.324219 747.164062 969.324219 " clip-rule="nonzero"/></clipPath><clipPath id="3d7b5a7f8d"><path d="M 729 351.253906 L 1608 351.253906 L 1608 406.984375 L 729 406.984375 Z M 729 351.253906 " clip-rule="nonzero"/></clipPath><clipPath id="c8590b7646"><path d="M 1579.707031 406.175781 L 757.171875 406.175781 C 742.007812 406.175781 729.765625 393.933594 729.765625 378.769531 C 729.765625 363.605469 742.007812 351.363281 757.171875 351.363281 L 1579.707031 351.363281 C 1594.808594 351.363281 1607.113281 363.667969 1607.113281 378.769531 C 1607.113281 393.871094 1594.871094 406.175781 1579.707031 406.175781 " clip-rule="nonzero"/></clipPath><clipPath id="bbf7ca9994"><path d="M 927 833 L 1410 833 L 1410 889 L 927 889 Z M 927 833 " clip-rule="nonzero"/></clipPath><clipPath id="b97f742100"><path d="M 1381.964844 888.101562 L 954.910156 888.101562 C 939.8125 888.101562 927.507812 875.859375 927.507812 860.695312 C 927.507812 845.53125 939.75 833.289062 954.910156 833.289062 L 1381.964844 833.289062 C 1397.066406 833.289062 1409.371094 845.59375 1409.371094 860.695312 C 1409.371094 875.796875 1397.128906 888.101562 1381.964844 888.101562 " clip-rule="nonzero"/></clipPath><clipPath id="40ac4cc624"><path d="M 1148 833 L 1204 833 L 1204 1115 L 1148 1115 Z M 1148 833 " clip-rule="nonzero"/></clipPath><clipPath id="b5e08492ef"><path d="M 1175.832031 1114.925781 C 1160.730469 1114.925781 1148.429688 1102.683594 1148.429688 1087.519531 L 1148.429688 860.695312 C 1148.429688 845.59375 1160.671875 833.289062 1175.832031 833.289062 C 1190.996094 833.289062 1203.238281 845.53125 1203.238281 860.695312 L 1203.238281 1087.457031 C 1203.238281 1102.558594 1190.996094 1114.863281 1175.832031 1114.863281 " clip-rule="nonzero"/></clipPath><clipPath id="d6020566ba"><path d="M 913 1226 L 1440 1226 L 1440 1406 L 913 1406 Z M 913 1226 " clip-rule="nonzero"/></clipPath><clipPath id="ca9b81b8a1"><path d="M 1168.4375 1405.574219 C 1008.851562 1405.574219 921.292969 1274.699219 917.625 1269.167969 C 909.296875 1256.488281 912.839844 1239.523438 925.519531 1231.195312 C 938.195312 1222.871094 955.097656 1226.410156 963.425781 1239.027344 C 964.171875 1240.144531 1038.992188 1350.761719 1168.4375 1350.761719 C 1324.792969 1350.761719 1385.878906 1245.304688 1388.425781 1240.828125 C 1395.824219 1227.714844 1412.476562 1222.929688 1425.652344 1230.265625 C 1438.824219 1237.597656 1443.671875 1254.128906 1436.402344 1267.363281 C 1433.296875 1273.019531 1358.289062 1405.632812 1168.4375 1405.632812 " clip-rule="nonzero"/></clipPath><clipPath id="93ae20cf47"><path d="M 581 497 L 909 497 L 909 825 L 581 825 Z M 581 497 " clip-rule="nonzero"/></clipPath><clipPath id="55be9ba9a7"><path d="M 744.742188 497.464844 C 705.527344 497.464844 669.609375 511.261719 641.457031 534.316406 C 649.476562 531.144531 658.238281 529.28125 667.433594 529.28125 C 706.335938 529.28125 737.90625 560.851562 737.90625 599.753906 C 737.90625 638.65625 706.335938 670.222656 667.433594 670.222656 C 628.53125 670.222656 596.964844 638.65625 596.964844 599.753906 L 597.273438 593.105469 C 587.332031 611.375 581.304688 635.421875 581.304688 660.902344 C 581.304688 751.199219 654.507812 824.339844 744.742188 824.339844 C 834.972656 824.339844 908.179688 751.199219 908.179688 660.902344 C 908.179688 570.609375 834.972656 497.464844 744.742188 497.464844 " clip-rule="nonzero"/></clipPath><clipPath id="fff56eb020"><path d="M 31.28125 639 L 453 639 L 453 1992.246094 L 31.28125 1992.246094 Z M 31.28125 639 " clip-rule="nonzero"/></clipPath><clipPath id="49dc69a166"><path d="M 241.996094 694.585938 C 156.113281 694.585938 86.203125 764.496094 86.203125 850.378906 L 86.203125 1781.542969 C 86.203125 1867.488281 156.113281 1937.335938 241.996094 1937.335938 C 327.878906 1937.335938 397.792969 1867.425781 397.792969 1781.542969 L 397.792969 850.378906 C 397.792969 764.433594 327.878906 694.585938 241.996094 694.585938 M 241.996094 1992.148438 C 125.851562 1992.148438 31.390625 1897.691406 31.390625 1781.542969 L 31.390625 850.378906 C 31.390625 734.230469 125.851562 639.773438 241.996094 639.773438 C 358.144531 639.773438 452.601562 734.230469 452.601562 850.378906 L 452.601562 1781.542969 C 452.601562 1897.691406 358.144531 1992.148438 241.996094 1992.148438 " clip-rule="nonzero"/></clipPath><clipPath id="f3c23e07ea"><path d="M 1899 639 L 2321 639 L 2321 1992.246094 L 1899 1992.246094 Z M 1899 639 " clip-rule="nonzero"/></clipPath><clipPath id="25a3e4d0bd"><path d="M 2109.667969 694.585938 C 2023.785156 694.585938 1953.875 764.496094 1953.875 850.378906 L 1953.875 1781.542969 C 1953.875 1867.488281 2023.785156 1937.335938 2109.667969 1937.335938 C 2195.550781 1937.335938 2265.464844 1867.425781 2265.464844 1781.542969 L 2265.464844 850.378906 C 2265.464844 764.433594 2195.550781 694.585938 2109.667969 694.585938 M 2109.667969 1992.148438 C 1993.523438 1992.148438 1899.0625 1897.691406 1899.0625 1781.542969 L 1899.0625 850.378906 C 1899.0625 734.230469 1993.523438 639.773438 2109.667969 639.773438 C 2225.816406 639.773438 2320.273438 734.230469 2320.273438 850.378906 L 2320.273438 1781.542969 C 2320.273438 1897.691406 2225.816406 1992.148438 2109.667969 1992.148438 " clip-rule="nonzero"/></clipPath><clipPath id="078e0da3c3"><path d="M 1416 497 L 1744 497 L 1744 825 L 1416 825 Z M 1416 497 " clip-rule="nonzero"/></clipPath><clipPath id="b84025a66c"><path d="M 1579.707031 497.464844 C 1540.492188 497.464844 1504.574219 511.261719 1476.421875 534.316406 C 1484.441406 531.144531 1493.203125 529.28125 1502.398438 529.28125 C 1541.300781 529.28125 1572.871094 560.851562 1572.871094 599.753906 C 1572.871094 638.65625 1541.300781 670.222656 1502.398438 670.222656 C 1463.496094 670.222656 1431.929688 638.65625 1431.929688 599.753906 L 1432.238281 593.105469 C 1422.296875 611.375 1416.269531 635.421875 1416.269531 660.902344 C 1416.269531 751.199219 1489.472656 824.339844 1579.707031 824.339844 C 1669.9375 824.339844 1743.144531 751.199219 1743.144531 660.902344 C 1743.144531 570.609375 1669.9375 497.464844 1579.707031 497.464844 " clip-rule="nonzero"/></clipPath><clipPath id="8ffd6174f1"><path d="M 2612 1740 L 3240 1740 L 3240 1894 L 2612 1894 Z M 2612 1740 " clip-rule="nonzero"/></clipPath><clipPath id="e790096aa1"><path d="M 3163.480469 1893.210938 L 2689.136719 1893.210938 C 2646.941406 1893.210938 2612.761719 1859.03125 2612.761719 1816.835938 C 2612.761719 1774.640625 2646.941406 1740.460938 2689.136719 1740.460938 L 3163.480469 1740.460938 C 3205.675781 1740.460938 3239.855469 1774.640625 3239.855469 1816.835938 C 3239.855469 1859.03125 3205.613281 1893.210938 3163.480469 1893.210938 " clip-rule="nonzero"/></clipPath><clipPath id="0f5a09ebc4"><path d="M 2858 520.378906 L 3012 520.378906 L 3012 1890 L 2858 1890 Z M 2858 520.378906 " clip-rule="nonzero"/></clipPath><clipPath id="ddeb6caf1a"><path d="M 2935.289062 1889.542969 C 2893.09375 1889.542969 2858.914062 1855.367188 2858.914062 1813.171875 L 2858.914062 596.828125 C 2858.914062 554.632812 2893.152344 520.453125 2935.289062 520.453125 C 2977.421875 520.453125 3011.664062 554.632812 3011.664062 596.828125 L 3011.664062 1813.109375 C 3011.664062 1855.304688 2977.484375 1889.484375 2935.289062 1889.484375 " clip-rule="nonzero"/></clipPath><clipPath id="abe214c8b6"><path d="M 2523.28125 511.261719 L 3012 511.261719 L 3012 839.515625 L 2523.28125 839.515625 Z M 2523.28125 511.261719 " clip-rule="nonzero"/></clipPath><clipPath id="7ae0a85962"><path d="M 2600.457031 839.066406 C 2572.863281 839.066406 2546.265625 824.089844 2532.65625 797.925781 C 2513.144531 760.515625 2527.6875 714.34375 2565.097656 694.890625 L 2899.742188 520.578125 C 2937.152344 501.066406 2983.324219 515.605469 3002.777344 553.078125 C 3022.226562 590.550781 3007.746094 636.664062 2970.335938 656.113281 L 2635.628906 830.363281 C 2624.382812 836.269531 2612.265625 839.003906 2600.394531 839.003906 " clip-rule="nonzero"/></clipPath><clipPath id="d587a6675c"><path d="M 3320 944 L 4269 944 L 4269 1894 L 3320 1894 Z M 3320 944 " clip-rule="nonzero"/></clipPath><clipPath id="c019b72832"><path d="M 3794.359375 1098.21875 C 3617.578125 1098.21875 3473.804688 1241.992188 3473.804688 1418.769531 C 3473.804688 1595.546875 3617.578125 1739.320312 3794.359375 1739.320312 C 3971.136719 1739.320312 4114.910156 1595.546875 4114.910156 1418.769531 C 4114.910156 1241.992188 3971.136719 1098.21875 3794.359375 1098.21875 M 3794.359375 1893.035156 C 3532.816406 1893.035156 3320.09375 1680.3125 3320.09375 1418.769531 C 3320.09375 1157.226562 3532.816406 944.566406 3794.359375 944.566406 C 4055.902344 944.566406 4268.621094 1157.289062 4268.621094 1418.832031 C 4268.621094 1680.375 4055.902344 1893.097656 3794.359375 1893.097656 " clip-rule="nonzero"/></clipPath><clipPath id="f1915cc6cb"><path d="M 3320 512 L 3474 512 L 3474 1890 L 3320 1890 Z M 3320 512 " clip-rule="nonzero"/></clipPath><clipPath id="7e4715e0c7"><path d="M 3396.917969 1889.285156 C 3354.472656 1889.285156 3320.09375 1854.902344 3320.09375 1812.457031 L 3320.09375 588.949219 C 3320.09375 546.503906 3354.535156 512.121094 3396.917969 512.121094 C 3439.300781 512.121094 3473.742188 546.503906 3473.742188 588.949219 L 3473.742188 1812.457031 C 3473.742188 1854.902344 3439.300781 1889.285156 3396.917969 1889.285156 " clip-rule="nonzero"/></clipPath><clipPath id="a5a9d4e60a"><path d="M 4359.824219 951.683594 L 5302 951.683594 L 5302 1894 L 4359.824219 1894 Z M 4359.824219 951.683594 " clip-rule="nonzero"/></clipPath><clipPath id="ec773fc530"><path d="M 4830.792969 1104.328125 C 4655.242188 1104.328125 4512.46875 1247.101562 4512.46875 1422.652344 C 4512.46875 1598.203125 4655.242188 1740.976562 4830.792969 1740.976562 C 5006.34375 1740.976562 5149.117188 1598.203125 5149.117188 1422.652344 C 5149.117188 1247.101562 5006.34375 1104.328125 4830.792969 1104.328125 M 4830.792969 1893.621094 C 4571.066406 1893.558594 4359.824219 1682.316406 4359.824219 1422.652344 C 4359.824219 1162.988281 4571.066406 951.683594 4830.792969 951.683594 C 5090.519531 951.683594 5301.761719 1162.925781 5301.761719 1422.652344 C 5301.761719 1682.378906 5090.519531 1893.621094 4830.792969 1893.621094 " clip-rule="nonzero"/></clipPath><clipPath id="eaa796615c"><path d="M 5474 524 L 5965 524 L 5965 1898.855469 L 5474 1898.855469 Z M 5474 524 " clip-rule="nonzero"/></clipPath><clipPath id="ee369cdad5"><path d="M 5878.835938 1898.199219 C 5739.386719 1898.199219 5632.566406 1856.492188 5561.375 1774.191406 C 5464.265625 1661.851562 5472.929688 1518.003906 5477.050781 1481.464844 L 5477.050781 610.472656 C 5477.050781 563.035156 5515.542969 524.609375 5562.980469 524.609375 C 5610.417969 524.609375 5648.84375 563.035156 5648.84375 610.472656 L 5648.84375 1486.773438 C 5648.84375 1490.894531 5648.566406 1495.085938 5647.9375 1499.140625 C 5647.867188 1499.558594 5635.710938 1598.34375 5692.019531 1662.621094 C 5729.1875 1704.957031 5791.996094 1726.40625 5878.835938 1726.40625 C 5926.273438 1726.40625 5964.699219 1764.832031 5964.699219 1812.269531 C 5964.699219 1859.707031 5926.273438 1898.132812 5878.835938 1898.132812 " clip-rule="nonzero"/></clipPath><clipPath id="f4ed44d4bb"><path d="M 5310 906 L 5965 906 L 5965 1078 L 5310 1078 Z M 5310 906 " clip-rule="nonzero"/></clipPath><clipPath id="6d9cbdf535"><path d="M 5878.835938 1077.789062 L 5396.078125 1077.789062 C 5348.640625 1077.789062 5310.214844 1039.367188 5310.214844 991.929688 C 5310.214844 944.492188 5348.640625 906.066406 5396.078125 906.066406 L 5878.835938 906.066406 C 5926.273438 906.066406 5964.699219 944.492188 5964.699219 991.929688 C 5964.699219 1039.367188 5926.273438 1077.789062 5878.835938 1077.789062 " clip-rule="nonzero"/></clipPath></defs><g clip-path="url(#38275ddb80)"><path fill="#ffffff" d="M 0.320312 0 L 5999.679688 0 L 5999.679688 2343.5 L 0.320312 2343.5 Z M 0.320312 0 " fill-opacity="1" fill-rule="nonzero"/><path fill="#ffffff" d="M 0.320312 0 L 5999.679688 0 L 5999.679688 2343.5 L 0.320312 2343.5 Z M 0.320312 0 " fill-opacity="1" fill-rule="nonzero"/></g><g clip-path="url(#e90366828f)"><g clip-path="url(#6ffbe8d1f0)"><path fill="#008080" d="M 0.320312 320.292969 L 2353.441406 320.292969 L 2353.441406 2023.207031 L 0.320312 2023.207031 Z M 0.320312 320.292969 " fill-opacity="1" fill-rule="nonzero"/></g></g><g clip-path="url(#70c650eeb3)"><g clip-path="url(#9884c24aa3)"><path fill="#008080" d="M 0.320312 320.292969 L 2353.441406 320.292969 L 2353.441406 2023.207031 L 0.320312 2023.207031 Z M 0.320312 320.292969 " fill-opacity="1" fill-rule="nonzero"/></g></g><g clip-path="url(#69bb19dd08)"><g clip-path="url(#2c17c75680)"><path fill="#008080" d="M 0.320312 320.292969 L 2353.441406 320.292969 L 2353.441406 2023.207031 L 0.320312 2023.207031 Z M 0.320312 320.292969 " fill-opacity="1" fill-rule="nonzero"/></g></g><g clip-path="url(#3d7b5a7f8d)"><g clip-path="url(#c8590b7646)"><path fill="#008080" d="M 0.320312 320.292969 L 2353.441406 320.292969 L 2353.441406 2023.207031 L 0.320312 2023.207031 Z M 0.320312 320.292969 " fill-opacity="1" fill-rule="nonzero"/></g></g><g clip-path="url(#bbf7ca9994)"><g clip-path="url(#b97f742100)"><path fill="#008080" d="M 0.320312 320.292969 L 2353.441406 320.292969 L 2353.441406 2023.207031 L 0.320312 2023.207031 Z M 0.320312 320.292969 " fill-opacity="1" fill-rule="nonzero"/></g></g><g clip-path="url(#40ac4cc624)"><g clip-path="url(#b5e08492ef)"><path fill="#008080" d="M 0.320312 320.292969 L 2353.441406 320.292969 L 2353.441406 2023.207031 L 0.320312 2023.207031 Z M 0.320312 320.292969 " fill-opacity="1" fill-rule="nonzero"/></g></g><g clip-path="url(#d6020566ba)"><g clip-path="url(#ca9b81b8a1)"><path fill="#008080" d="M 0.320312 320.292969 L 2353.441406 320.292969 L 2353.441406 2023.207031 L 0.320312 2023.207031 Z M 0.320312 320.292969 " fill-opacity="1" fill-rule="nonzero"/></g></g><g clip-path="url(#93ae20cf47)"><g clip-path="url(#55be9ba9a7)"><path fill="#008080" d="M 0.320312 320.292969 L 2353.441406 320.292969 L 2353.441406 2023.207031 L 0.320312 2023.207031 Z M 0.320312 320.292969 " fill-opacity="1" fill-rule="nonzero"/></g></g><g clip-path="url(#fff56eb020)"><g clip-path="url(#49dc69a166)"><path fill="#606161" d="M 0.320312 320.292969 L 2353.441406 320.292969 L 2353.441406 2023.207031 L 0.320312 2023.207031 Z M 0.320312 320.292969 " fill-opacity="1" fill-rule="nonzero"/></g></g><g clip-path="url(#f3c23e07ea)"><g clip-path="url(#25a3e4d0bd)"><path fill="#606161" d="M 0.320312 320.292969 L 2353.441406 320.292969 L 2353.441406 2023.207031 L 0.320312 2023.207031 Z M 0.320312 320.292969 " fill-opacity="1" fill-rule="nonzero"/></g></g><g clip-path="url(#078e0da3c3)"><g clip-path="url(#b84025a66c)"><path fill="#008080" d="M 0.320312 320.292969 L 2353.441406 320.292969 L 2353.441406 2023.207031 L 0.320312 2023.207031 Z M 0.320312 320.292969 " fill-opacity="1" fill-rule="nonzero"/></g></g><g clip-path="url(#8ffd6174f1)"><g clip-path="url(#e790096aa1)"><path fill="#009ed2" d="M 2492.886719 480.867188 L 3270.96875 480.867188 L 3270.96875 1924.578125 L 2492.886719 1924.578125 Z M 2492.886719 480.867188 " fill-opacity="1" fill-rule="nonzero"/></g></g><g clip-path="url(#0f5a09ebc4)"><g clip-path="url(#ddeb6caf1a)"><path fill="#009ed2" d="M 2492.886719 480.867188 L 3270.96875 480.867188 L 3270.96875 1924.578125 L 2492.886719 1924.578125 Z M 2492.886719 480.867188 " fill-opacity="1" fill-rule="nonzero"/></g></g><g clip-path="url(#abe214c8b6)"><g clip-path="url(#7ae0a85962)"><path fill="#d84287" d="M 2492.886719 480.867188 L 3270.96875 480.867188 L 3270.96875 1924.578125 L 2492.886719 1924.578125 Z M 2492.886719 480.867188 " fill-opacity="1" fill-rule="nonzero"/></g></g><g clip-path="url(#d587a6675c)"><g clip-path="url(#c019b72832)"><path fill="#ff8000" d="M 3288.839844 480.867188 L 4299.839844 480.867188 L 4299.839844 1922.335938 L 3288.839844 1922.335938 Z M 3288.839844 480.867188 " fill-opacity="1" fill-rule="nonzero"/></g></g><g clip-path="url(#f1915cc6cb)"><g clip-path="url(#7e4715e0c7)"><path fill="#ff5844" d="M 3288.839844 480.867188 L 4299.839844 480.867188 L 4299.839844 1922.335938 L 3288.839844 1922.335938 Z M 3288.839844 480.867188 " fill-opacity="1" fill-rule="nonzero"/></g></g><g clip-path="url(#a5a9d4e60a)"><g clip-path="url(#ec773fc530)"><path fill="#ff0038" d="M 4359.824219 951.683594 L 5301.714844 951.683594 L 5301.714844 1893.574219 L 4359.824219 1893.574219 Z M 4359.824219 951.683594 " fill-opacity="1" fill-rule="nonzero"/></g></g><g clip-path="url(#eaa796615c)"><g clip-path="url(#ee369cdad5)"><path fill="#009ed2" d="M 5275.28125 489.675781 L 5999.679688 489.675781 L 5999.679688 1932.8125 L 5275.28125 1932.8125 Z M 5275.28125 489.675781 " fill-opacity="1" fill-rule="nonzero"/></g></g><g clip-path="url(#f4ed44d4bb)"><g clip-path="url(#6d9cbdf535)"><path fill="#00a861" d="M 5275.28125 489.675781 L 5999.679688 489.675781 L 5999.679688 1932.8125 L 5275.28125 1932.8125 Z M 5275.28125 489.675781 " fill-opacity="1" fill-rule="nonzero"/></g></g></svg>